<?xml version="1.0" encoding="UTF-8"?>
<svg width="27px" height="17px" viewBox="0 0 27 17" version="1.1" xmlns="http://www.w3.org/2000/svg" xmlns:xlink="http://www.w3.org/1999/xlink">
    <title>34E504FB-21E4-4F13-84AF-933FC962F9D8</title>
    <g id="Page-1" stroke="none" stroke-width="1" fill="none" fill-rule="evenodd">
        <g id="Desktop-HD-Copy-11" transform="translate(-1388.000000, -834.000000)" fill="#FFFFFF" fill-rule="nonzero">
            <path d="M1410.99409,834.065734 C1410.99212,834.049974 1410.99015,834.036185 1410.98818,834.020425 C1410.98424,833.996786 1410.98227,833.973147 1410.97833,833.951477 C1410.97439,833.933748 1410.97045,833.917989 1410.96651,833.900259 C1410.9606,833.88056 1410.95666,833.858891 1410.95075,833.839191 C1410.94484,833.821462 1410.93893,833.805702 1410.93302,833.787973 C1410.92514,833.768274 1410.91923,833.748574 1410.91135,833.728875 C1410.90544,833.713116 1410.89756,833.697356 1410.88968,833.681597 C1410.87983,833.661897 1410.87195,833.642198 1410.8621,833.624469 C1410.85422,833.608709 1410.84437,833.59295 1410.83452,833.57719 C1410.82467,833.559461 1410.81482,833.543701 1410.803,833.525972 C1410.78921,833.506273 1410.77345,833.486573 1410.75966,833.466874 C1410.75178,833.455054 1410.7439,833.445205 1410.73405,833.433385 C1410.68282,833.372317 1410.62766,833.315189 1410.56659,833.265941 C1410.56462,833.263971 1410.56068,833.262001 1410.55871,833.260031 C1410.52719,833.238362 1410.49961,833.216693 1410.47006,833.196993 C1410.46021,833.191083 1410.45036,833.185174 1410.44248,833.179264 C1410.41884,833.165474 1410.3952,833.149715 1410.37156,833.137895 C1410.35974,833.131985 1410.34595,833.126076 1410.33413,833.120166 C1410.31246,833.110316 1410.29079,833.098497 1410.26715,833.088647 C1410.25336,833.082737 1410.2376,833.078797 1410.22381,833.072888 C1410.20214,833.065008 1410.18047,833.057128 1410.1588,833.049248 C1410.14106,833.043339 1410.1253,833.041369 1410.10757,833.035459 C1410.08787,833.029549 1410.06817,833.025609 1410.0465,833.021669 C1410.02483,833.017729 1410.00316,833.015759 1409.98149,833.01182 C1409.96573,833.00985 1409.94997,833.00591 1409.93224,833.00394 C1409.89678,833.00197 1409.85738,833 1409.81798,833 L1400.35787,833 C1399.70579,833 1399.17585,833.529912 1399.17585,834.18196 C1399.17585,834.834007 1399.70579,835.363919 1400.35787,835.363919 L1406.96537,835.363919 L1392.34574,849.982789 C1391.88475,850.441783 1391.88475,851.192328 1392.34574,851.653292 C1392.57624,851.883774 1392.87962,852 1393.18104,852 C1393.48245,852 1393.78584,851.883774 1394.01633,851.653292 L1408.63596,837.032452 L1408.63596,843.698704 C1408.63596,844.350752 1409.1659,844.880664 1409.81798,844.880664 C1410.47006,844.880664 1411,844.350752 1411,843.698704 L1411,834.18196 C1411,834.142561 1410.99803,834.103162 1410.99409,834.065734 Z" id="Path" transform="translate(1401.500000, 842.500000) rotate(-315.000000) translate(-1401.500000, -842.500000) "></path>
        </g>
    </g>
</svg>