<?xml version="1.0" encoding="UTF-8"?>
<svg width="22px" height="18px" viewBox="0 0 22 18" version="1.1" xmlns="http://www.w3.org/2000/svg" xmlns:xlink="http://www.w3.org/1999/xlink">
    <title>B5C30A80-AA20-4256-8387-741A7B0AAA2C</title>
    <g id="Page-1" stroke="none" stroke-width="1" fill="none" fill-rule="evenodd">
        <g id="Desktop-HD-Copy-27" transform="translate(-918.000000, -280.000000)" fill="#FFFFFF" fill-rule="nonzero">
            <g id="camera-photo-gallery-photography-picture" transform="translate(918.000000, 280.000000)">
                <path d="M18.777,3.387 L16.565,3.387 C16.351,3.387 16.159,3.251 16.085,3.05 L15.507,1.458 C15.263,0.783 14.616,0.331 13.899,0.331 L8.102,0.331 C7.384,0.331 6.738,0.783 6.495,1.457 L5.915,3.049 C5.841,3.251 5.648,3.387 5.435,3.387 L3.223,3.387 C1.666,3.387 0.4,4.652 0.4,6.208 L0.4,14.848 C0.4,16.404 1.666,17.669 3.222,17.669 L18.777,17.669 C20.334,17.669 21.5990006,16.403 21.5990006,14.848 L21.5990006,6.208 C21.6,4.652 20.334,3.387 18.777,3.387 Z M20.4,14.848 C20.4,15.743 19.671,16.47 18.777,16.47 L3.223,16.47 C2.328,16.47 1.6,15.742 1.6,14.848 L1.6,6.208 C1.6,5.313 2.329,4.586 3.223,4.586 L5.435,4.586 C6.151,4.586 6.796,4.134 7.042,3.46 L7.622,1.866 C7.694,1.666 7.888,1.53 8.101,1.53 L13.898,1.53 C14.112,1.53 14.305,1.666 14.378,1.867 L14.957,3.461 C15.203,4.134 15.849,4.586 16.564,4.586 L18.776,4.586 C19.671,4.586 20.399,5.314 20.399,6.208 L20.399,14.848 L20.4,14.848 Z M11,6.351 C8.739,6.351 6.9,8.19 6.9,10.451 C6.9,12.712 8.739,14.551 11,14.551 C13.261,14.551 15.1,12.712 15.1,10.451 C15.1,8.19 13.261,6.351 11,6.351 Z M11,13.351 C9.401,13.351 8.1,12.049 8.1,10.451 C8.1,8.853 9.402,7.551 11,7.551 C12.598,7.551 13.9,8.853 13.9,10.451 C13.9,12.049 12.599,13.351 11,13.351 Z" id="Shape"></path>
            </g>
        </g>
    </g>
</svg>