<?xml version="1.0" encoding="UTF-8"?>
<svg width="150px" height="150px" viewBox="0 0 150 150" version="1.1" xmlns="http://www.w3.org/2000/svg" xmlns:xlink="http://www.w3.org/1999/xlink">
    <title>EFD2D813-D5D5-48D4-9517-27393C48305A</title>
    <g id="Page-1" stroke="none" stroke-width="1" fill="none" fill-rule="evenodd">
        <g id="Desktop-HD-Copy-40" transform="translate(-1035.000000, -1079.000000)">
            <g id="Group-4" transform="translate(1035.000000, 1079.000000)">
                <circle id="Oval" stroke="#999999" stroke-width="3" cx="75" cy="75" r="73.5"></circle>
                <path d="M98.514,56.783 L86.214,44.483 C84.7545084,43.0163613 82.7690849,42.1943226 80.7,42.1999708 L60,42.1999708 C54.0353247,42.1999708 49.2,47.0353247 49.2,53 L49.2,95 C49.2,97.8643381 50.3378539,100.61136 52.3632468,102.636753 C54.3886397,104.662146 57.1356619,105.8 60,105.8 L90,105.8 C92.8643381,105.8 95.6113603,104.662146 97.6367532,102.636753 C99.6621461,100.61136 100.800033,97.8643381 100.800033,95 L100.800033,62.3 C100.806021,60.2293763 99.9827635,58.2425385 98.514,56.783 Z M97.2,95 C97.2,98.9764502 93.9764502,102.2 90,102.2 L60,102.2 C56.0235498,102.2 52.8,98.9764502 52.8,95 L52.8,53 C52.8,49.0235498 56.0235498,45.8 60,45.8 L80.7,45.8 C81.81394,45.8 82.8822853,46.2423656 83.67,47.03 L95.97,59.33 C96.7545865,60.1197474 97.1964878,61.1867774 97.2,62.3 L97.2,95 Z M89.295,68 L89.295,77.249 C89.295,77.7263897 89.1053577,78.1842267 88.7677922,78.5217922 C88.4302267,78.8593577 87.9723897,79.049 87.495,79.049 L87.495,79.049 C86.5008875,79.049 85.695,78.2431125 85.695,77.249 L85.695,72.341 L77.352,80.684 C77.0143771,81.0219987 76.5562366,81.211916 76.0785,81.211916 C75.6007634,81.211916 75.1426229,81.0219987 74.805,80.684 L70.704,76.583 L63.396,83.9 C62.6918451,84.593625 61.5601115,84.5896957 60.86079,83.8911979 C60.1614684,83.1927 60.1562053,82.0609719 60.849,81.356 L69.432,72.773 C69.7696229,72.4350013 70.2277634,72.245084 70.7055,72.245084 C71.1832366,72.245084 71.6413771,72.4350013 71.979,72.773 L76.08,76.874 L83.172,69.782 L78.183,69.752 C77.1888875,69.752 76.3830001,68.9461125 76.3830001,67.952 C76.3830001,66.9578875 77.1888875,66.152 78.183,66.152 L78.183,66.152 L87.483,66.209 C87.5722957,66.2199528 87.6605756,66.2380101 87.747,66.263 C87.8868414,66.274637 88.0248068,66.3028343 88.158,66.347 C88.5995315,66.5297021 88.9502979,66.8804685 89.133,67.322 C89.1837108,67.4682739 89.2149785,67.6205779 89.226,67.775 C89.254167,67.8483171 89.2772221,67.923497 89.295,68 Z" id="Shape" fill="#999999" fill-rule="nonzero"></path>
            </g>
        </g>
    </g>
</svg>