<?xml version="1.0" encoding="UTF-8"?>
<svg width="238px" height="201px" viewBox="0 0 238 201" version="1.1" xmlns="http://www.w3.org/2000/svg" xmlns:xlink="http://www.w3.org/1999/xlink">
    <title>93CB4FD6-DA65-4B04-BFC8-4A01CE991024</title>
    <g id="Page-1" stroke="none" stroke-width="1" fill="none" fill-rule="evenodd">
        <g id="Desktop-HD-Copy-29" transform="translate(-942.000000, -367.000000)">
            <g id="Group-9" transform="translate(943.025940, 368.854837)">
                <g id="Group-4" transform="translate(35.974060, 28.145163)" stroke="#0E0E0E" stroke-width="3">
                    <circle id="Oval" cx="75" cy="75" r="73.5"></circle>
                </g>
                <path d="M-4.54747351e-13,79.2630155 C5.11862839,77.7557628 8.48109073,78.5491758 10.087387,81.6432546 C12.4968315,86.2843727 17.9467104,86.1393471 20.1032977,84.4600373" id="Path-3" stroke="#0E0E0E" stroke-width="2"></path>
                <path d="M17,163.151067 C13.9161551,156.790971 14.8204687,152.116965 19.7129408,149.129047 C27.0516489,144.647171 25.4439559,137.745897 22.5945385,134.721125" id="Path-4" stroke="#0E0E0E" stroke-width="2"></path>
                <path d="M89,30.1510672 C85.9161551,23.7909713 86.8204687,19.1169646 91.7129408,16.1290472 C99.0516489,11.6471711 97.4439559,4.74589692 94.5945385,1.72112542" id="Path-4-Copy" stroke="#0E0E0E" stroke-width="2"></path>
                <path d="M203,113.151067 C199.916155,106.790971 200.820469,102.116965 205.712941,99.1290472 C213.051649,94.6471711 211.443956,87.7458969 208.594539,84.7211254" id="Path-4-Copy-2" stroke="#0E0E0E" stroke-width="2"></path>
                <circle id="Oval" stroke="#0E0E0E" stroke-width="2" cx="231.97406" cy="85.1451633" r="3"></circle>
                <circle id="Oval-Copy-4" stroke="#0E0E0E" stroke-width="2" cx="86.97406" cy="194.145163" r="3"></circle>
                <circle id="Oval-Copy-2" stroke="#0E0E0E" stroke-width="2" cx="57.97406" cy="36.1451633" r="3"></circle>
                <path d="M188.036029,165.627056 C191.905542,168.180886 196.367476,169.125064 200.378733,165.627056 C204.389991,162.129047 211.242203,165.112801 211.242203,166.768599" id="Path-7" stroke="#0E0E0E" stroke-width="2"></path>
                <path d="M146.036029,1.6270557 C149.905542,4.18088584 154.367476,5.12506421 158.378733,1.6270557 C162.389991,-1.8709528 169.242203,1.112801 169.242203,2.76859861" id="Path-7-Copy-2" stroke="#0E0E0E" stroke-width="2"></path>
                <path d="M169.036029,41.6270557 C172.905542,44.1808858 177.367476,45.1250642 181.378733,41.6270557 C185.389991,38.1290472 192.242203,41.112801 192.242203,42.7685986" id="Path-7-Copy" stroke="#0E0E0E" stroke-width="2" transform="translate(180.639116, 41.955071) rotate(46.000000) translate(-180.639116, -41.955071) "></path>
                <g id="deal" transform="translate(59.974060, 73.145163)" fill="#0E0E0E" fill-rule="nonzero">
                    <path d="M101.45,0.2676 C100.8676,-0.0196 100.1726,0.0482 99.6566,0.4426 L71.9116,21.6574 C70.5444,22.7128 70.1796,24.6222 71.061,26.1074 L66.6832,27.3008 L60.2948,24.5808 C60.1834,24.533 60.0672,24.4972 59.9482,24.4742 C53.8194,23.3032 50.6418,24.4326 48.9999999,25.6908 L31.558,25.6908 C32.156,24.259 31.7164,22.604 30.4868,21.6574 L2.7434,0.4424 C2.2278,0.0476 1.5328,-0.0204 0.9506,0.2672 C0.3682,0.5548 -9.13551048e-08,1.148 -9.13551048e-08,1.7974 L-9.13551048e-08,42.7574 C-9.13551048e-08,43.37 0.328,43.9356 0.86,44.239 L11.4234,50.274 C11.9368,50.5684 12.5184,50.723 13.11,50.7224 C13.9782,50.72 14.813,50.388 15.4456,49.7936 L17.4254,51.3754 C16.2736,52.8462 16.022,54.8308 16.7702,56.5426 C17.5186,58.2544 19.1462,59.4174 21.0082,59.5706 C21.1532,59.584 21.2966,59.589 21.4398,59.589 C21.7022,59.5866 21.9642,59.564 22.2232,59.5212 C22.3298,60.7394 22.8106,61.8948 23.5998,62.829 L23.6016,62.8308 C24.623,64.0428 26.0866,64.796 27.6666,64.9224 C27.835,64.9374 28.0032,64.944 28.1716,64.944 C28.1974,64.944 28.2222,64.9378 28.2478,64.9374 C28.2954,66.0468 28.7086,67.1092 29.4232,67.959 C30.3952,69.1048 31.8224,69.7646 33.3248,69.7624 C33.922,69.7614 34.5142,69.654 35.0736,69.4454 C35.6432,71.4808 37.4226,72.9446 39.5298,73.1108 C39.6748,73.1242 39.8182,73.1292 39.9614,73.1292 C41.1356,73.1362 42.2744,72.7264 43.1748,71.9726 L45.8512,69.9048 L52.1532,74.116 C53.1286,74.764 54.2738,75.1092008 55.4448,75.1092008 C55.8466,75.1092008 56.2474,75.0698 56.6414,74.9908 C59.2088,74.4796 61.1394,72.3488 61.3962,69.7438 C63.1044,70.265 64.957,69.9824 66.432,68.9754 C67.907,67.9684 68.845,66.346 68.9818,64.5652 C70.9586,65.2184 73.133,64.7892 74.7132,63.4336 C76.2934,62.078 77.0484,59.9942 76.7036,57.9412 C78.4138,57.7456 79.9522,56.8104 80.9132,55.3824 C81.8658,53.9466 82.1536,52.1696 81.7024,50.5066 L85.0678,47.1424 L86.4416,49.2024 C87.4378,50.6944 89.418,51.1622 90.9766,50.274 L101.54,44.239 C102.072,43.9354 102.4,43.3698 102.4,42.7574 L102.4,1.7974 C102.4,1.1484 102.0318,0.5554 101.45,0.2676 Z M3.4134,41.7674 L3.4134,5.2508 L22.4676,19.8208 L6.8388,43.7244 L3.4134,41.7674 Z M13.1166,47.3108 L9.8072,45.4202 L25.1858,21.8996 L28.4134,24.3674 L13.1166,47.3108 Z M22.5066,55.7808 C22.1722,56.0728 21.7318,56.2134 21.29,56.1692 C20.6308,56.1136 20.0664,55.6746 19.85,55.0494 C19.6336,54.4242 19.8062,53.7304 20.29,53.2792 L24.5584,49.9792 C24.8586,49.7234 25.2406,49.5832 25.635,49.5841947 C25.6816,49.5841947 25.7282,49.5858 25.775,49.5892 C26.4344,49.645 26.9992,50.0844 27.2154,50.7098 C27.4318,51.3354 27.259,52.0296 26.775,52.4808 L22.5066,55.7808 Z M27.9484,61.5208 C26.9298,61.4366 26.0586,60.7548 25.7322,59.7862 C25.4058,58.8176 25.6866,57.7476 26.4468,57.0642 L31.8218,52.9076 C32.612,52.238 33.7276,52.1106 34.6486,52.5844 C35.5694,53.0584 36.1142,54.0404 36.0286,55.0726 C35.98,55.7044 35.6952,56.2948 35.231,56.7264 L33.7684,57.8676 L29.8136,60.9242 C29.297,61.3652 28.625,61.5802 27.9484,61.5208 Z M36.665,64.1658 L36.6612,64.1698 L34.3834,65.9474 C34.0456,66.2342 33.6078,66.3748 33.1662,66.3382 C32.7246,66.3016 32.3158,66.0908 32.03,65.7524 L32.03,65.7524 C31.7418,65.4156 31.6014,64.9772 31.64,64.5358 C31.6692,64.1164 31.8598,63.7244 32.1716,63.4424 L36.1612,60.3286 L37.3382,59.419 C37.3512,59.408 37.36,59.394 37.373,59.3828 L38.5782,58.4424 C38.8778,58.1862 39.259,58.0454 39.6532,58.0457875 C39.7006,58.0456 39.7478,58.0478 39.7948,58.0524 C40.4554,58.1082 41.0206,58.5486 41.236,59.1756 C41.4514,59.8024 41.2764,60.4974 40.7898,60.9474 L36.7976,64.0632 L36.665,64.1658 Z M45.2966,66.0208 L41.0282,69.3208 C40.695,69.615 40.2536,69.7558 39.8116,69.7092 C39.1528,69.6536 38.5886,69.215 38.3722,68.5904 C38.1556,67.9658 38.3274,67.2722 38.8104,66.8208 L38.8884,66.76 L43.08,63.5194 C43.7736,62.9338 44.8076,63.0088 45.4096,63.688 C46.0114,64.3672 45.9614,65.4028 45.2966,66.0208 Z M78.0716,53.4924 C77.2906,54.6486 75.7312,54.9736 74.5532,54.2258 L74.5398,54.2174 L63.3314,46.4708 C62.83,46.1222 62.1808,46.0682 61.6286,46.3292 C61.0766,46.59 60.706,47.1262 60.657,47.7348 C60.608,48.3434 60.888,48.9318 61.3912,49.2776 L72.2374,56.7756 L72.2428,56.781 C73.1028,57.3518 73.5336,58.385 73.3334,59.3976 C73.1332,60.4102 72.342,61.202 71.3294,61.4026 C70.6734,61.539 69.9902,61.4082 69.431,61.0392 L58.2144,53.2992 C57.4384,52.7654 56.3768,52.9608 55.8418,53.7358 C55.3068,54.5108 55.5002,55.5728 56.2744,56.1092 L64.4666,61.7612 L64.4694,61.7642 C65.6524,62.595 65.9764,64.2076 65.206,65.4308 C64.4368,66.5968 62.873,66.9274 61.6976,66.1724 L58.679,64.0302 L58.6776,64.0292 L58.6772,64.0292 L55.601,61.8458 C55.1038,61.4926 54.456,61.4316 53.9016,61.6858 C53.3472,61.9398 52.9704,62.4704 52.9132,63.0774 C52.856,63.6844 53.127,64.276 53.6242,64.6292 L56.7886,66.8742 C56.9412,66.9976 57.086,67.13 57.2226,67.2708 C58.188,68.1862 58.2938,69.6874 57.4664,70.729 C56.639,71.7706 55.1526,72.0072 54.0426,71.274 L48.4212,67.5172 C49.3754,66.0438 49.4964,64.1808 48.741,62.5964 C47.9856,61.012 46.4622,59.933 44.7168,59.7466 C44.7562,57.0898 42.725,54.8592 40.076,54.6508 C39.857,54.6378 39.6372,54.6396 39.4184,54.6562 C39.3638,52.5554 38.201,50.6406 36.3624,49.6232 C34.5238,48.6058 32.2838,48.6376 30.4748,49.707 C29.964,48.1018 28.69,46.8544 27.0742,46.3778 C25.4586,45.901 23.7116,46.2568 22.411,47.3276 L20.0802,49.1288 L17.4222,47.005 L29.357,29.1042 L44.3374,29.1042 C43.0418,30.2414 42.4372,31.9746 42.7444,33.6708 C43.1014,35.7296 44.734,37.33 46.7994,37.6458 C49.9564,38.0926 53.1752,37.6288 56.0778,36.3092 L60.4294,39.0776 C60.5268,39.1336 60.6298,39.1798 60.7364,39.2156 L77.3744,49.931 C77.703,50.157 77.9792,50.4508 78.1844,50.7926 C78.1928,50.8126 78.2028,50.831 78.2128,50.851 C78.6544,51.6906 78.6,52.7046 78.0716,53.4924 Z M79.8182,47.5646 C79.637,47.3892 79.445,47.2254 79.2434,47.0742 L62.365,36.2026 C62.2874,36.165 62.2068,36.1338 62.1242,36.109 L57.1034,32.9158 C56.5684,32.5756 55.8888,32.5594 55.3384,32.8742 C52.8842,34.148 50.0984,34.6384 47.3568,34.2792 C46.7172,34.2036 46.2058,33.712 46.1052,33.0758 C45.9792,32.4096 46.304,31.7394 46.9052,31.4258 C48.1834,30.76 49.3844,29.9558 50.4868,29.0276 C50.605,28.928 50.702,28.8056 50.7718,28.6676 C50.8258,28.6002 50.886,28.5384 50.9518,28.4826 C51.4518,28.0542 53.5136,26.756 59.1284,27.7942 L65.8918,30.6742 C66.2442,30.8274 66.6386,30.8544 67.0084,30.7508 L73.0402,29.106 L83.137,44.2468 L79.8182,47.5646 Z M89.2834,47.3108 L73.985,24.3692 L77.2144,21.8996 L92.5928,45.4202 L89.2834,47.3108 Z M98.9866,41.7674 L95.5612,43.7242 L79.9326,19.821 L98.9866,5.2506 L98.9866,41.7674 Z" id="Shape"></path>
                </g>
            </g>
        </g>
    </g>
</svg>